<svg width="100" height="107" viewBox="0 0 100 107" fill="none" xmlns="http://www.w3.org/2000/svg">
<path d="M58.9665 69.0559L61.4808 66.3312C61.8714 65.908 62.4416 65.7914 62.9311 65.9815C62.164 65.1141 61.0985 64.5662 59.9275 64.5286L59.9258 64.5291L59.9258 64.5291L59.9257 64.5291L59.9256 64.5292L59.9255 64.5292L59.9254 64.5292L59.9253 64.5293L59.9251 64.5293L59.8752 64.5448H59.8223H59.3997C57.2165 64.7636 55.4535 66.823 55.4535 69.3082C55.4535 71.7897 57.2053 73.8017 59.3918 74.0206H59.8223C59.8704 74.0206 59.918 74.0305 59.942 74.0362C62.2453 73.9531 64.1439 71.8435 64.1439 69.2572C64.1439 68.5859 64.0159 67.9498 63.7858 67.3743C63.7906 67.7488 63.6596 68.125 63.3928 68.414L59.8989 72.2001L59.8913 72.2083L59.8832 72.2161C59.623 72.4642 59.2935 72.5935 58.9586 72.5935C58.5975 72.5935 58.2491 72.4391 57.9837 72.1626L57.9785 72.1571L57.9785 72.157L56.236 70.2603L58.9665 69.0559ZM58.9665 69.0559L58.1951 68.22C57.6561 67.6359 56.775 67.6359 56.236 68.22C55.712 68.7878 55.7119 69.6917 56.2355 70.2597L58.9665 69.0559ZM49.0211 35.0284C49.5602 35.6118 50.4407 35.6116 50.9796 35.0277C53.4581 32.3418 57.0754 32.2794 59.4232 34.823C60.5234 36.0234 61.1368 37.6224 61.1368 39.3423C61.1368 41.0625 60.5232 42.6611 59.4237 43.8525L50 54.0644L40.5763 43.8525C39.4768 42.6611 38.8632 41.0625 38.8632 39.3423C38.8632 37.6225 39.4766 36.0235 40.5766 34.8231C41.7307 33.5728 43.1777 32.9623 44.6296 32.9623C46.1629 32.9623 47.7374 33.6455 49.0211 35.0284ZM49.0211 35.0284C49.0209 35.0282 49.0207 35.028 49.0204 35.0277L49.2777 34.7904L49.0211 35.0285C49.0211 35.0285 49.0211 35.0284 49.0211 35.0284ZM40.5126 18.7149L40.5127 18.7154C40.9389 20.4793 42.3691 21.7059 44.1035 21.7059H55.8965C57.6309 21.7059 59.0611 20.4793 59.4873 18.7154L59.4874 18.7149L60.1846 15.8097H65.2791C67.6426 15.8097 69.6086 17.9058 69.6086 20.5306V86.4693V86.4778C69.6086 89.1107 67.643 91.1987 65.2791 91.1987H34.7209C32.3574 91.1987 30.3914 89.1026 30.3914 86.4778V20.5306C30.3914 17.8981 32.3645 15.8097 34.7209 15.8097H39.8154L40.5126 18.7149ZM50.9747 57.1713L50.9747 57.1714L50.9796 57.1661L61.3822 45.8934C63.0006 44.1486 63.8782 41.8158 63.8782 39.3423C63.8782 36.868 62.9922 34.5358 61.3828 32.7918L61.3825 32.7915C58.2718 29.4292 53.4812 29.2082 50 32.0682C46.5192 29.2082 41.7283 29.4204 38.6172 32.7918L38.6166 32.7925C37.0081 34.5443 36.1218 36.8675 36.1218 39.3423C36.1218 41.8165 37.0078 44.1487 38.6172 45.8927L49.0204 57.1661C49.2714 57.438 49.6221 57.6021 50 57.6021C50.3818 57.6021 50.721 57.4351 50.9747 57.1713ZM65.2791 12.8976H34.7209C30.7958 12.8976 27.65 16.3484 27.65 20.5306V86.4693C27.65 90.6515 30.7958 94.1023 34.7209 94.1023H65.2791C69.2043 94.1023 72.35 90.6515 72.35 86.4693V20.5306C72.35 16.3484 69.2043 12.8976 65.2791 12.8976ZM42.6394 15.8097H57.3606L56.8362 17.9976C56.8362 17.9977 56.8361 17.9979 56.8361 17.998C56.7133 18.5032 56.3395 18.7938 55.8965 18.7938H44.1035C43.6606 18.7938 43.2869 18.5033 43.164 17.9982C43.1639 17.998 43.1639 17.9978 43.1638 17.9976L42.6394 15.8097ZM55.8965 88.4869C56.681 88.4869 57.2672 87.8097 57.2672 87.0308C57.2672 86.2519 56.6811 85.5748 55.8965 85.5748H44.1035C43.319 85.5748 42.7328 86.2519 42.7328 87.0308C42.7328 87.8097 43.319 88.4869 44.1035 88.4869H55.8965ZM59.7987 61.6156C59.6906 61.6156 59.5695 61.6253 59.4683 61.6333C59.43 61.6363 59.3946 61.6392 59.3638 61.6411H40.1856C36.2528 61.6411 33.099 65.1002 33.099 69.2827C33.099 73.4646 36.2523 76.9327 40.1856 76.9327H59.3638C59.3946 76.9347 59.43 76.9375 59.4683 76.9406C59.5694 76.9486 59.6906 76.9583 59.7987 76.9583C63.7338 76.9583 66.8853 73.4797 66.8853 69.2572C66.8853 65.0308 63.7302 61.6156 59.7987 61.6156ZM35.8404 69.2827C35.8404 66.6413 37.8138 64.5448 40.1856 64.5448H54.2402C53.2844 65.8597 52.7121 67.5154 52.7121 69.3082C52.7121 71.0973 53.2762 72.7246 54.2221 74.0206H40.1856C37.8138 74.0206 35.8404 71.9241 35.8404 69.2827Z" fill="black" stroke="black" stroke-width="0.7"/>
</svg>
