<svg width="100" height="107" viewBox="0 0 100 107" fill="none" xmlns="http://www.w3.org/2000/svg">
<path d="M40 69.336C42.2091 69.336 44 67.8031 44 65.912C44 64.021 42.2091 62.488 40 62.488C37.7909 62.488 36 64.021 36 65.912C36 67.8031 37.7909 69.336 40 69.336Z" fill="black"/>
<path d="M60 69.336C62.2091 69.336 64 67.8031 64 65.912C64 64.021 62.2091 62.488 60 62.488C57.7909 62.488 56 64.021 56 65.912C56 67.8031 57.7909 69.336 60 69.336Z" fill="black"/>
<path d="M74.4001 42.9712C73.2756 41.6831 71.6574 40.7747 69.829 40.4053C68.0007 40.036 66.0788 40.2292 64.4001 40.9511C61.7807 42.1043 59.383 43.5939 57.2901 45.368C52.5264 44.1761 47.4638 44.1761 42.7001 45.368C40.604 43.5803 38.1992 42.079 35.5701 40.9168C33.8914 40.1949 31.9695 40.0017 30.1412 40.3711C28.3128 40.7404 26.6946 41.6488 25.5701 42.937C23.0001 45.9587 20.0001 51.4114 19.2201 66.6054C19.1958 67.055 19.2752 67.5044 19.4538 67.9278C19.6324 68.3511 19.9066 68.7403 20.2609 69.0729C20.6151 69.4056 21.0424 69.6752 21.5184 69.8665C21.9945 70.0578 22.5098 70.167 23.0351 70.1878C23.5604 70.2086 24.0853 70.1406 24.5799 69.9877C25.0745 69.8349 25.5291 69.6001 25.9177 69.2969C26.3063 68.9936 26.6214 68.6278 26.8448 68.2204C27.0683 67.8129 27.1958 67.3718 27.2201 66.9221C28.0001 51.8651 31.0001 48.2699 32.0001 47.08C32.0001 47.08 38.0001 49.648 40.0001 53.928C42.9682 52.2533 46.4451 51.3606 50.0001 51.3606C53.5551 51.3606 57.0319 52.2533 60.0001 53.928C62.0001 49.648 68.0001 47.08 68.0001 47.08C69.0001 48.2613 71.9501 51.8394 72.7701 66.768C72.8001 67.6334 73.1991 68.4594 73.8918 69.0902C74.5845 69.721 75.5229 70.113 76.5301 70.192C77.0915 70.2227 77.6542 70.1516 78.1813 69.9834C78.7085 69.8153 79.1883 69.5538 79.5894 69.2161C79.9905 68.8785 80.3038 68.4722 80.509 68.0238C80.7142 67.5754 80.8065 67.095 80.7801 66.614C80.0001 51.4114 77.0001 45.9672 74.4001 42.9712Z" fill="black"/>
<path d="M74.4001 42.9712C73.2756 41.6831 71.6574 40.7747 69.829 40.4053C68.0007 40.036 66.0788 40.2292 64.4001 40.9511C61.7807 42.1043 59.383 43.5939 57.2901 45.368C52.5264 44.1761 47.4638 44.1761 42.7001 45.368C40.604 43.5803 38.1992 42.079 35.5701 40.9168C33.8914 40.1949 31.9695 40.0017 30.1412 40.3711C28.3128 40.7404 26.6946 41.6488 25.5701 42.937C23.0001 45.9587 20.0001 51.4114 19.2201 66.6054C19.1958 67.055 19.2752 67.5044 19.4538 67.9278C19.6324 68.3511 19.9066 68.7403 20.2609 69.0729C20.6151 69.4056 21.0424 69.6752 21.5184 69.8665C21.9945 70.0578 22.5098 70.167 23.0351 70.1878C23.5604 70.2086 24.0853 70.1406 24.5799 69.9877C25.0745 69.8349 25.5291 69.6001 25.9177 69.2969C26.3063 68.9936 26.6214 68.6278 26.8448 68.2204C27.0683 67.8129 27.1958 67.3718 27.2201 66.9221C28.0001 51.8651 31.0001 48.2699 32.0001 47.08C32.0001 47.08 38.0001 49.648 40.0001 53.928C42.9682 52.2533 46.4451 51.3606 50.0001 51.3606C53.5551 51.3606 57.0319 52.2533 60.0001 53.928C62.0001 49.648 68.0001 47.08 68.0001 47.08C69.0001 48.2613 71.9501 51.8394 72.7701 66.768C72.8001 67.6334 73.1991 68.4594 73.8918 69.0902C74.5845 69.721 75.5229 70.113 76.5301 70.192C77.0915 70.2227 77.6542 70.1516 78.1813 69.9834C78.7085 69.8153 79.1883 69.5538 79.5894 69.2161C79.9905 68.8785 80.3038 68.4722 80.509 68.0238C80.7142 67.5754 80.8065 67.095 80.7801 66.614C80.0001 51.4114 77.0001 45.9672 74.4001 42.9712Z" stroke="black"/>
<path d="M51 15.408C49.9391 15.408 48.9217 15.7687 48.1716 16.4108C47.4214 17.053 47 17.9239 47 18.832V23.112H42C40.9391 23.112 39.9217 23.4727 39.1716 24.1148C38.4214 24.757 38 25.6279 38 26.536C38 27.4441 38.4214 28.315 39.1716 28.9571C39.9217 29.5992 40.9391 29.96 42 29.96H47V34.24C47 35.1481 47.4214 36.019 48.1716 36.6611C48.9217 37.3032 49.9391 37.664 51 37.664C52.0609 37.664 53.0783 37.3032 53.8284 36.6611C54.5786 36.019 55 35.1481 55 34.24V29.96H60C61.0609 29.96 62.0783 29.5992 62.8284 28.9571C63.5786 28.315 64 27.4441 64 26.536C64 25.6279 63.5786 24.757 62.8284 24.1148C62.0783 23.4727 61.0609 23.112 60 23.112H55V18.832C55 17.9239 54.5786 17.053 53.8284 16.4108C53.0783 15.7687 52.0609 15.408 51 15.408Z" fill="black"/>
<path d="M51 15.408C49.9391 15.408 48.9217 15.7687 48.1716 16.4108C47.4214 17.053 47 17.9239 47 18.832V23.112H42C40.9391 23.112 39.9217 23.4727 39.1716 24.1148C38.4214 24.757 38 25.6279 38 26.536C38 27.4441 38.4214 28.315 39.1716 28.9571C39.9217 29.5992 40.9391 29.96 42 29.96H47V34.24C47 35.1481 47.4214 36.019 48.1716 36.6611C48.9217 37.3032 49.9391 37.664 51 37.664C52.0609 37.664 53.0783 37.3032 53.8284 36.6611C54.5786 36.019 55 35.1481 55 34.24V29.96H60C61.0609 29.96 62.0783 29.5992 62.8284 28.9571C63.5786 28.315 64 27.4441 64 26.536C64 25.6279 63.5786 24.757 62.8284 24.1148C62.0783 23.4727 61.0609 23.112 60 23.112H55V18.832C55 17.9239 54.5786 17.053 53.8284 16.4108C53.0783 15.7687 52.0609 15.408 51 15.408Z" stroke="black"/>
</svg>
