<svg width="100" height="107" viewBox="0 0 100 107" fill="none" xmlns="http://www.w3.org/2000/svg">
<path d="M80 74.8158V42.6119C79.9971 39.6681 78.9915 36.8204 77.1612 34.573C75.331 32.3256 72.7941 30.8236 70 30.3329V25.1387C70.0227 24.0791 69.666 23.0483 68.9991 22.2461C68.3322 21.4439 67.4025 20.9274 66.39 20.7964C65.8329 20.7397 65.2705 20.8051 64.7393 20.9884C64.208 21.1717 63.7197 21.4688 63.3059 21.8604C62.8921 22.2521 62.5621 22.7296 62.3371 23.2621C62.1122 23.7946 61.9973 24.3702 62 24.9518V30.1459H54V25.1284C54.0202 24.0704 53.6624 23.0423 52.9957 22.2423C52.3291 21.4423 51.4008 20.9272 50.39 20.7964C49.8329 20.7397 49.2705 20.8051 48.7393 20.9884C48.208 21.1717 47.7197 21.4688 47.3059 21.8604C46.8921 22.2521 46.5621 22.7296 46.3371 23.2621C46.1122 23.7946 45.9973 24.3702 46 24.9518V30.1459H38V25.1284C38.0202 24.0704 37.6624 23.0423 36.9957 22.2423C36.3291 21.4423 35.4008 20.9272 34.39 20.7964C33.8329 20.7397 33.2705 20.8051 32.7393 20.9884C32.208 21.1717 31.7197 21.4688 31.3059 21.8604C30.8921 22.2521 30.5621 22.7296 30.3371 23.2621C30.1122 23.7946 29.9973 24.3702 30 24.9518V30.3329C27.2059 30.8236 24.669 32.3256 22.8388 34.573C21.0085 36.8204 20.0029 39.6681 20 42.6119V51.9615C20 53.0635 20.4214 54.1205 21.1716 54.8997C21.9217 55.679 22.9391 56.1168 24 56.1168C25.0609 56.1168 26.0783 55.679 26.8284 54.8997C27.5786 54.1205 28 53.0635 28 51.9615V42.6119C28 41.5099 28.4214 40.453 29.1716 39.6737C29.9217 38.8944 30.9391 38.4566 32 38.4566H68C69.0609 38.4566 70.0783 38.8944 70.8284 39.6737C71.5786 40.453 72 41.5099 72 42.6119V74.8158C72 75.9179 71.5786 76.9748 70.8284 77.7541C70.0783 78.5334 69.0609 78.9712 68 78.9712H59C57.9391 78.9712 56.9217 79.409 56.1716 80.1882C55.4214 80.9675 55 82.0245 55 83.1265C55 84.2286 55.4214 85.2855 56.1716 86.0648C56.9217 86.8441 57.9391 87.2819 59 87.2819H68C71.1826 87.2819 74.2348 85.9685 76.4853 83.6306C78.7357 81.2928 80 78.122 80 74.8158Z" fill="black"/>
<path d="M24 74.8158C26.2091 74.8158 28 72.9554 28 70.6605C28 68.3655 26.2091 66.5051 24 66.5051C21.7909 66.5051 20 68.3655 20 70.6605C20 72.9554 21.7909 74.8158 24 74.8158Z" fill="black"/>
<path d="M48 74.8158C50.2091 74.8158 52 72.9554 52 70.6605C52 68.3655 50.2091 66.5051 48 66.5051C45.7909 66.5051 44 68.3655 44 70.6605C44 72.9554 45.7909 74.8158 48 74.8158Z" fill="black"/>
<path d="M36 67.5441C38.2091 67.5441 40 65.6837 40 63.3887C40 61.0938 38.2091 59.2334 36 59.2334C33.7909 59.2334 32 61.0938 32 63.3887C32 65.6837 33.7909 67.5441 36 67.5441Z" fill="black"/>
<path d="M32.69 87.2819H39.32C40.5621 87.2792 41.7525 86.7647 42.6299 85.8513C43.5073 84.9379 44 83.7002 44 82.4098C44.0329 80.2505 43.276 78.1586 41.8822 76.5564C40.4883 74.9542 38.5613 73.9609 36.49 73.7771C35.399 73.7075 34.3058 73.871 33.2779 74.2574C32.25 74.6438 31.3092 75.2449 30.5137 76.0237C29.7181 76.8024 29.0846 77.7423 28.6523 78.7853C28.2199 79.8282 27.998 80.9522 28 82.0878V82.4098C28 83.702 28.4941 84.9412 29.3737 85.8549C30.2532 86.7686 31.4461 87.2819 32.69 87.2819Z" fill="black"/>
</svg>
