<svg width="24" height="25" viewBox="0 0 24 25" fill="none" xmlns="http://www.w3.org/2000/svg">
<path d="M8.50078 12.2445C8.50078 10.4507 9.95546 8.9961 11.7504 8.9961C13.5453 8.9961 15.0008 10.4507 15.0008 12.2445C15.0008 14.0384 13.5453 15.493 11.7504 15.493C9.95546 15.493 8.50078 14.0384 8.50078 12.2445ZM6.74368 12.2445C6.74368 15.0081 8.98518 17.2482 11.7504 17.2482C14.5156 17.2482 16.7571 15.0081 16.7571 12.2445C16.7571 9.48099 14.5156 7.24084 11.7504 7.24084C8.98518 7.24084 6.74368 9.48099 6.74368 12.2445ZM15.7853 7.04244C15.7852 7.27371 15.8537 7.49982 15.9822 7.69217C16.1107 7.88452 16.2934 8.03447 16.5071 8.12306C16.7209 8.21165 16.9561 8.2349 17.1831 8.18987C17.4101 8.14485 17.6186 8.03356 17.7823 7.87009C17.946 7.70662 18.0575 7.49831 18.1028 7.27149C18.148 7.04468 18.1249 6.80955 18.0365 6.59585C17.948 6.38214 17.7981 6.19946 17.6057 6.07089C17.4134 5.94232 17.1872 5.87365 16.9558 5.87356H16.9553C16.6451 5.87371 16.3477 5.99689 16.1283 6.21605C15.9089 6.43521 15.7855 6.73243 15.7853 7.04244ZM7.81123 20.1764C6.86061 20.1331 6.34392 19.9748 6.00055 19.8412C5.54532 19.664 5.22051 19.4531 4.87902 19.1123C4.53752 18.7714 4.32613 18.4471 4.14969 17.9922C4.01583 17.6492 3.85749 17.1326 3.81427 16.1826C3.767 15.1554 3.75757 14.8469 3.75757 12.2446C3.75757 9.64236 3.76778 9.33467 3.81427 8.30666C3.85757 7.3566 4.01708 6.84108 4.14969 6.49706C4.32691 6.0421 4.53799 5.71749 4.87902 5.3762C5.22005 5.03491 5.54454 4.82364 6.00055 4.64731C6.34376 4.51353 6.86061 4.35528 7.81123 4.3121C8.839 4.26485 9.14774 4.25542 11.7504 4.25542C14.353 4.25542 14.6621 4.26563 15.6907 4.3121C16.6413 4.35536 17.1572 4.51478 17.5014 4.64731C17.9566 4.82364 18.2814 5.03537 18.6229 5.3762C18.9644 5.71702 19.175 6.0421 19.3523 6.49706C19.4861 6.84006 19.6445 7.3566 19.6877 8.30666C19.7349 9.33467 19.7444 9.64236 19.7444 12.2446C19.7444 14.8469 19.7349 15.1546 19.6877 16.1826C19.6444 17.1326 19.4853 17.649 19.3523 17.9922C19.175 18.4471 18.964 18.7717 18.6229 19.1123C18.2819 19.4528 17.9566 19.664 17.5014 19.8412C17.1582 19.9749 16.6413 20.1332 15.6907 20.1764C14.6629 20.2236 14.3542 20.233 11.7504 20.233C9.14657 20.233 8.83869 20.2236 7.81123 20.1764ZM7.7305 2.55901C6.69251 2.60625 5.98323 2.77074 5.36381 3.01163C4.72231 3.26039 4.17925 3.59412 3.63658 4.1356C3.09392 4.67709 2.76084 5.22068 2.51193 5.86179C2.2709 6.48123 2.10632 7.1897 2.05905 8.22706C2.011 9.26607 2 9.59824 2 12.2445C2 14.8908 2.011 15.223 2.05905 16.262C2.10632 17.2995 2.2709 18.0079 2.51193 18.6273C2.76084 19.268 3.09399 19.8122 3.63658 20.3535C4.17917 20.8947 4.72231 21.228 5.36381 21.4775C5.9844 21.7183 6.69251 21.8828 7.7305 21.9301C8.77067 21.9773 9.1025 21.9891 11.7504 21.9891C14.3983 21.9891 14.7307 21.9781 15.7703 21.9301C16.8083 21.8828 17.5172 21.7183 18.137 21.4775C18.7781 21.228 19.3215 20.895 19.8642 20.3535C20.4069 19.812 20.7392 19.268 20.9888 18.6273C21.2299 18.0079 21.3952 17.2994 21.4417 16.262C21.489 15.2222 21.5 14.8908 21.5 12.2445C21.5 9.59824 21.489 9.26607 21.4417 8.22706C21.3945 7.18962 21.2299 6.48084 20.9888 5.86179C20.7392 5.22107 20.406 4.67794 19.8642 4.1356C19.3224 3.59326 18.7781 3.26039 18.1378 3.01163C17.5172 2.77074 16.8083 2.60547 15.7711 2.55901C14.7314 2.51177 14.3991 2.5 11.7512 2.5C9.10328 2.5 8.77067 2.51099 7.7305 2.55901Z" fill="#5C5F66"/>
</svg>
