<svg width="116" height="119" viewBox="0 0 116 119" fill="none" xmlns="http://www.w3.org/2000/svg">
<rect width="115.537" height="118.978" rx="16" fill="#F2F1FA"/>
<path d="M83.5448 33.1404L61.6007 24.6708C59.2782 23.7764 56.7218 23.7764 54.3993 24.6708L32.4552 33.1404C28.5931 34.6311 26 38.4297 26 42.589V53.0278C26 71.3214 37.4329 87.9292 54.4688 94.3559C55.6063 94.7828 56.7986 95 57.9945 95C59.1905 95 60.3974 94.7828 61.5458 94.3485C78.5671 87.9292 90 71.3214 90 53.0278V42.589C90 38.426 87.4069 34.6274 83.5448 33.1404ZM84.514 53.0314C84.514 69.0356 74.5111 83.5637 59.6001 89.1917C58.5651 89.5782 57.4276 89.5819 56.3743 89.1843C41.4852 83.5674 31.4787 69.0356 31.4787 53.0314V42.5927C31.4787 40.7007 32.6564 38.9744 34.4119 38.2972L56.356 29.8276C56.8863 29.6252 57.4386 29.5221 57.9945 29.5221C58.5504 29.5221 59.1063 29.6252 59.633 29.8276L81.5771 38.2972C83.3326 38.9744 84.5103 40.7007 84.5103 42.5927L84.514 53.0314ZM71.0366 61.0372C68.5496 56.035 63.5537 52.9247 57.9982 52.9247C52.4427 52.9247 47.4431 56.0313 44.9597 61.0372L43.3541 64.2689C42.374 66.2382 42.2167 68.4761 42.9116 70.5631C43.6028 72.6538 45.0621 74.347 47.0188 75.3335C49.3156 76.4892 52.055 76.4892 54.3481 75.3335C56.634 74.185 59.366 74.185 61.6482 75.3335C62.7966 75.9113 64.0547 76.1984 65.3129 76.1984C66.571 76.1984 67.8291 75.9113 68.9775 75.3335C70.9342 74.347 72.3935 72.6538 73.0884 70.5631C73.7796 68.4761 73.6224 66.2382 72.6459 64.2689L71.0403 61.0372H71.0366ZM67.884 68.8147C67.6572 69.5067 67.1745 70.0662 66.5235 70.3938C65.7664 70.7766 64.863 70.7766 64.1023 70.3938C62.1931 69.4294 60.0938 68.9509 57.9982 68.9509C55.9025 68.9509 53.8068 69.4294 51.8941 70.3938C51.137 70.7766 50.23 70.7766 49.4729 70.3938C48.8255 70.0662 48.3428 69.5104 48.1123 68.8147C47.8856 68.1228 47.9368 67.3866 48.2586 66.7351L49.8642 63.5033C51.4149 60.3857 54.531 58.4459 57.9982 58.4459C61.4653 58.4459 64.5814 60.3857 66.1321 63.5033L67.7377 66.7351C68.0595 67.3903 68.1144 68.1264 67.884 68.8147ZM47.9405 44.6429C47.9405 40.9105 49.8642 38.2015 52.5121 38.2015C55.1601 38.2015 57.0838 40.9105 57.0838 44.6429C57.0838 48.3752 55.1601 51.0843 52.5121 51.0843C49.8642 51.0843 47.9405 48.3752 47.9405 44.6429ZM58.9125 44.6429C58.9125 40.9105 60.8363 38.2015 63.4842 38.2015C66.1321 38.2015 68.0559 40.9105 68.0559 44.6429C68.0559 48.3752 66.1321 51.0843 63.4842 51.0843C60.8363 51.0843 58.9125 48.3752 58.9125 44.6429ZM41.5401 58.4459C38.8922 58.4459 36.9684 55.7368 36.9684 52.0045C36.9684 48.2722 38.8922 45.5631 41.5401 45.5631C44.188 45.5631 46.1118 48.2722 46.1118 52.0045C46.1118 55.7368 44.188 58.4459 41.5401 58.4459ZM79.0279 52.0045C79.0279 55.7368 77.1042 58.4459 74.4563 58.4459C71.8083 58.4459 69.8846 55.7368 69.8846 52.0045C69.8846 48.2722 71.8083 45.5631 74.4563 45.5631C77.1042 45.5631 79.0279 48.2722 79.0279 52.0045Z" fill="black"/>
</svg>
