<svg width="116" height="119" viewBox="0 0 116 119" fill="none" xmlns="http://www.w3.org/2000/svg">
<rect width="115.537" height="118.978" rx="16" fill="#E3EDFB"/>
<path d="M55.8257 69.7073C55.7354 69.6717 55.665 69.6088 55.6378 69.5394C54.864 67.5691 52.8396 66.2451 50.6001 66.2451C48.3605 66.2451 46.3361 67.5691 45.5623 69.5393C45.5351 69.6088 45.4647 69.6716 45.3745 69.7073C42.1554 70.9786 41.301 74.8873 43.7769 77.2325C44.7195 78.1253 46.0233 78.6373 47.354 78.6373H53.846C56.566 78.6373 58.8852 76.5574 58.8579 73.9436C58.8383 72.0897 57.6481 70.427 55.8257 69.7073ZM53.846 75.5392H47.354C46.4435 75.5392 45.6358 74.8388 45.6452 73.9741C45.6517 73.3565 46.0486 72.8024 46.6565 72.5623C47.5882 72.1943 48.3189 71.4827 48.6619 70.6099C48.9595 69.8523 49.7384 69.3432 50.6001 69.3432C51.4617 69.3432 52.2406 69.8523 52.5381 70.6103C52.8809 71.4828 53.6118 72.1944 54.5436 72.5625C55.1514 72.8026 55.5483 73.3567 55.5547 73.9744C55.5641 74.8369 54.7585 75.5392 53.846 75.5392Z" fill="black"/>
<path d="M43.1883 66.2448C43.1883 65.3895 42.4487 64.6958 41.5366 64.6958H41.4954C40.5833 64.6958 39.8438 65.3895 39.8438 66.2448C39.8438 67.1002 40.5833 67.7938 41.4954 67.7938H41.5366C42.4487 67.7938 43.1883 67.1002 43.1883 66.2448Z" fill="black"/>
<path d="M47.1936 63.1469H47.2349C48.1469 63.1469 48.8865 62.4532 48.8865 61.5978C48.8865 60.7425 48.1469 60.0488 47.2349 60.0488H47.1936C46.2816 60.0488 45.542 60.7425 45.542 61.5978C45.542 62.4532 46.2816 63.1469 47.1936 63.1469Z" fill="black"/>
<path d="M53.9651 63.1469H54.0064C54.9184 63.1469 55.658 62.4532 55.658 61.5978C55.658 60.7425 54.9184 60.0488 54.0064 60.0488H53.9651C53.0531 60.0488 52.3135 60.7425 52.3135 61.5978C52.3135 62.4532 53.0531 63.1469 53.9651 63.1469Z" fill="black"/>
<path d="M59.7046 64.6958H59.6633C58.7513 64.6958 58.0117 65.3895 58.0117 66.2448C58.0117 67.1002 58.7513 67.7938 59.6633 67.7938H59.7046C60.6166 67.7938 61.3562 67.1002 61.3562 66.2448C61.3562 65.3895 60.6166 64.6958 59.7046 64.6958Z" fill="black"/>
<path d="M84.4579 85.6078H76.1999C76.1999 83.9552 76.1999 50.1852 76.1999 46.8824C76.1999 43.4658 73.2362 40.6863 69.5934 40.6863H67.9418V34.4902H71.245C72.1571 34.4902 72.8966 33.7965 72.8966 32.9412V20.549C72.8966 19.6937 72.1571 19 71.245 19H29.9548C29.0428 19 28.3032 19.6937 28.3032 20.549V32.9412C28.3032 33.7965 29.0428 34.4902 29.9548 34.4902H33.258V40.6863H31.6064C27.9636 40.6863 25 43.4658 25 46.8824C25 49.3966 25 89.2812 25 91.8039C25 95.2204 27.9636 98 31.6064 98C60.8072 98 82.9718 98 84.4579 98C88.1007 98 91.0643 95.2204 91.0643 91.8039C91.0643 88.3874 88.1007 85.6078 84.4579 85.6078ZM28.3032 85.6078V53.0784H72.8966V85.6078C70.4202 85.6078 28.9358 85.6078 28.3032 85.6078ZM56.3806 31.3922V22.098H61.3354V31.3922H56.3806ZM48.1225 31.3922V22.098H53.0773V31.3922H48.1225ZM39.8645 31.3922V22.098H44.8193V31.3922H39.8645ZM69.5934 31.3922C68.8419 31.3922 65.9411 31.3922 64.6386 31.3922V22.098H69.5934V31.3922ZM31.6064 22.098H36.5613V31.3922C36.1266 31.3922 32.856 31.3922 31.6064 31.3922V22.098ZM36.5613 34.4902H64.6386V40.6863H36.5613V34.4902ZM31.6064 43.7843C33.2562 43.7843 67.8976 43.7843 69.5934 43.7843C71.4148 43.7843 72.8966 45.1741 72.8966 46.8824V49.9804H28.3032V46.8824C28.3032 45.1741 29.785 43.7843 31.6064 43.7843ZM28.3032 91.8039V88.7059H65.5275C64.3684 90.5802 64.3167 92.944 65.5275 94.902H31.6064C29.785 94.902 28.3032 93.5122 28.3032 91.8039ZM84.4579 94.902H71.245C69.4236 94.902 67.9418 93.5122 67.9418 91.8039C67.9418 90.0957 69.4236 88.7059 71.245 88.7059C72.4261 88.7059 82.674 88.7059 84.4579 88.7059C86.2793 88.7059 87.7611 90.0957 87.7611 91.8039C87.7611 93.5122 86.2793 94.902 84.4579 94.902Z" fill="black"/>
</svg>
