<svg width="24" height="25" viewBox="0 0 24 25" fill="none" xmlns="http://www.w3.org/2000/svg">
<g clip-path="url(#clip0_4420_3566)">
<path d="M16.9695 9.29673C18.4511 10.3596 20.2661 10.985 22.2265 10.985V7.19927C21.8555 7.19935 21.4854 7.16053 21.1225 7.08335V10.0633C19.1623 10.0633 17.3475 9.43788 15.8655 8.37507V16.1006C15.8655 19.9654 12.7436 23.0981 8.89286 23.0981C7.45605 23.0981 6.12059 22.6622 5.01123 21.9146C6.27739 23.2138 8.04314 24.0198 9.99663 24.0198C13.8476 24.0198 16.9696 20.887 16.9696 17.0221V9.29673H16.9695ZM18.3314 5.4774C17.5742 4.64722 17.077 3.57437 16.9695 2.38829V1.90137H15.9233C16.1866 3.40887 17.0848 4.6968 18.3314 5.4774ZM7.44684 18.9489C7.02379 18.3922 6.79517 17.7113 6.7962 17.0111C6.7962 15.2435 8.22411 13.8103 9.98576 13.8103C10.3141 13.8102 10.6404 13.8607 10.9533 13.9603V10.09C10.5877 10.0397 10.2186 10.0183 9.84976 10.0262V13.0387C9.53665 12.939 9.21014 12.8884 8.88175 12.8887C7.1201 12.8887 5.69227 14.3218 5.69227 16.0896C5.69227 17.3395 6.40599 18.4217 7.44684 18.9489Z" fill="#5C5F66"/>
<path d="M15.8654 8.37499C17.3474 9.4378 19.1622 10.0632 21.1224 10.0632V7.08327C20.0283 6.84938 19.0596 6.27555 18.3313 5.4774C17.0847 4.69672 16.1866 3.4088 15.9232 1.90137H13.1751V17.022C13.1689 18.7847 11.7434 20.2121 9.98557 20.2121C8.94969 20.2121 8.02941 19.7165 7.44657 18.9489C6.4058 18.4217 5.69208 17.3395 5.69208 16.0897C5.69208 14.322 7.11991 12.8888 8.88157 12.8888C9.21909 12.8888 9.54441 12.9416 9.84957 13.0387V10.0263C6.06646 10.1047 3.02393 13.2068 3.02393 17.0221C3.02393 18.9266 3.78159 20.6531 5.01128 21.9147C6.12064 22.6622 7.4561 23.0982 8.89291 23.0982C12.7437 23.0982 15.8655 19.9653 15.8655 16.1006V8.37499H15.8654Z" fill="#5C5F66"/>
<path d="M21.1224 7.08347V6.27773C20.1357 6.27923 19.1684 6.00192 18.3313 5.47752C19.0723 6.29172 20.0481 6.85313 21.1224 7.08347ZM15.9232 1.90156C15.898 1.7575 15.8787 1.61248 15.8653 1.46691V0.97998H12.071V16.1008C12.0649 17.8633 10.6395 19.2906 8.88149 19.2906C8.36536 19.2906 7.87805 19.1677 7.4465 18.9492C8.02933 19.7167 8.94961 20.2122 9.9855 20.2122C11.7432 20.2122 13.1689 18.785 13.1751 17.0223V1.90156H15.9232ZM9.84965 10.0265V9.16868C9.5326 9.12519 9.21295 9.10336 8.89291 9.10352C5.04176 9.10344 1.91992 12.2364 1.91992 16.1008C1.91992 18.5235 3.14686 20.6587 5.01128 21.9147C3.78159 20.6533 3.02393 18.9266 3.02393 17.0222C3.02393 13.207 6.06639 10.1049 9.84965 10.0265Z" fill="#5C5F66"/>
</g>
<defs>
<clipPath id="clip0_4420_3566">
<rect width="24" height="24" fill="white" transform="translate(0 0.5)"/>
</clipPath>
</defs>
</svg>
