<svg width="24" height="25" viewBox="0 0 24 25" fill="none" xmlns="http://www.w3.org/2000/svg">
<path d="M9.6 15.9986V9.00109L15.84 12.4998L9.6 15.9986Z" fill="white"/>
<path d="M23.4937 6.88776C23.3571 6.39487 23.0897 5.94546 22.7181 5.58452C22.3466 5.22359 21.884 4.96378 21.3766 4.83111C19.5082 4.33984 12 4.33984 12 4.33984C12 4.33984 4.49183 4.33984 2.62336 4.83111C2.11599 4.96378 1.6534 5.22359 1.28186 5.58452C0.910331 5.94546 0.642899 6.39487 0.506332 6.88776C0.157447 8.73897 -0.0118575 10.6179 0.00064491 12.4998C-0.0118575 14.3818 0.157447 16.2607 0.506332 18.1119C0.642899 18.6048 0.910331 19.0542 1.28186 19.4152C1.6534 19.7761 2.11599 20.0359 2.62336 20.1686C4.49183 20.6598 12 20.6598 12 20.6598C12 20.6598 19.5082 20.6598 21.3766 20.1686C21.884 20.0359 22.3466 19.7761 22.7181 19.4152C23.0897 19.0542 23.3571 18.6048 23.4937 18.1119C23.8426 16.2607 24.0119 14.3818 23.9994 12.4998C24.0119 10.6179 23.8426 8.73897 23.4937 6.88776ZM9.60013 15.997V9.0027L15.8312 12.4998L9.60013 15.997Z" fill="black"/>
</svg>
